<svg xmlns="http://www.w3.org/2000/svg" width="22" height="22" viewBox="0 0 22 22">
  <g id="Group_2" data-name="Group 2" transform="translate(6745 -12673)">
    <rect id="Rectangle_1" data-name="Rectangle 1" width="22" height="22" transform="translate(-6745 12673)" fill="none"/>
    <path id="Path_276" data-name="Path 276" d="M4.235,4.453A8,8,0,0,0,13.052,17.4a3.456,3.456,0,0,0-.24-1.722,12.3,12.3,0,0,0-2.253-2.844c-.338-.355-.316-.628-.195-1.437l.013-.091c.082-.554.22-.882,2.085-1.178a1.28,1.28,0,0,1,1.538.75l.116.172a1.831,1.831,0,0,0,.938.756c.165.075.37.17.645.325.652.373.652.794.652,1.716v.1a5.249,5.249,0,0,1-.1,1.034,8,8,0,0,0-3.1-12.336A7.877,7.877,0,0,0,11.575,3.91c-.135.185-.327,1.132-.95,1.21a3.667,3.667,0,0,1-.613-.009c-.622-.04-1.472-.095-1.744.644a2.928,2.928,0,0,0,.356,2.4.583.583,0,0,1,.046.519,1.014,1.014,0,0,1-.292.5,2.883,2.883,0,0,1-.419-.43,2.743,2.743,0,0,0-1.211-.96c-.184-.051-.386-.093-.583-.135C5.616,7.532,5,7.4,4.85,7.093a2.163,2.163,0,0,1-.105-.865,3.184,3.184,0,0,0-.2-1.345,1.276,1.276,0,0,0-.306-.43ZM10,20a10,10,0,1,1,7.071-2.929A10,10,0,0,1,10,20Z" transform="translate(-6745 12675)" fill="#2b98f7"/>
  </g>
</svg>
