<svg xmlns="http://www.w3.org/2000/svg" width="22" height="22" viewBox="0 0 22 22">
  <g id="Group_3" data-name="Group 3" transform="translate(6746 -12673)">
    <g id="Group_2" data-name="Group 2">
      <rect id="Rectangle_1" data-name="Rectangle 1" width="22" height="22" transform="translate(-6746 12673)" fill="none"/>
      <path id="Path_263" data-name="Path 263" d="M.8,0H15.2a.812.812,0,0,1,.566.228A.767.767,0,0,1,16,.778V13.222a.767.767,0,0,1-.234.55A.812.812,0,0,1,15.2,14H.8a.812.812,0,0,1-.566-.228A.767.767,0,0,1,0,13.222V.778A.767.767,0,0,1,.234.228.812.812,0,0,1,.8,0ZM14.4,3.3,8.058,8.818,1.6,3.279v9.165H14.4ZM2.009,1.556l6.04,5.182L14,1.556Z" transform="translate(-6746 12681)" fill="#2b98f7"/>
    </g>
  </g>
</svg>
