<svg xmlns="http://www.w3.org/2000/svg" width="22" height="22.008" viewBox="0 0 22 22.008">
  <g id="Group_2" data-name="Group 2" transform="translate(6755 -12673)">
    <rect id="Rectangle_1" data-name="Rectangle 1" width="22" height="22" transform="translate(-6755 12673)" fill="none"/>
    <path id="Path_274" data-name="Path 274" d="M6.367,7.682a10.556,10.556,0,0,0,3.952,3.952L11.2,10.4a1,1,0,0,1,1.294-.3,11.422,11.422,0,0,0,4.583,1.364,1,1,0,0,1,.921,1v4.462a1,1,0,0,1-.9,1A15.509,15.509,0,0,1,.083.9a1,1,0,0,1,1-.9H5.54a1,1,0,0,1,1,.921A11.422,11.422,0,0,0,7.9,5.5a1,1,0,0,1-.3,1.3l-1.238.884ZM3.845,7.025l1.9-1.357A13.41,13.41,0,0,1,4.648,2H2.011C2,2.166,2,2.333,2,2.5A13.5,13.5,0,0,0,15.5,16c.167,0,.334,0,.5-.01V13.353a13.41,13.41,0,0,1-3.668-1.1l-1.357,1.9a12.442,12.442,0,0,1-1.588-.75L9.33,13.37a12.556,12.556,0,0,1-4.7-4.7L4.6,8.612a12.442,12.442,0,0,1-.75-1.588Z" transform="translate(-6755 12677)" fill="#2b98f7"/>
  </g>
</svg>
